<svg version="1.2" xmlns="http://www.w3.org/2000/svg" viewBox="0 0 512 512" width="512" height="512">
	<title>todo-svg</title>
	<style>
		tspan { white-space:pre } 
		.s0 { fill: #ebf7ff } 
		.s1 { fill: #d9edfa } 
		.s2 { fill: #b5c8ff } 
		.s3 { fill: #ffca21 } 
		.s4 { fill: #f2bb0c } 
		.s5 { fill: #ffffff } 
		.t6 { font-size: 112px;fill: #ffffff;font-weight: 400;font-family: "DoppioOne-Regular", "Doppio One" } 
	</style>
	<g id="Layer">
		<g id="Layer">
			<g id="Layer">
				<path id="Layer" class="s0" d="m356 512h-282.2v-512h364.4v429.8z"/>
				<path id="Layer" class="s1" d="m438.2 0v429.8l-41.2 41.2v-41.2-429.8z"/>
				<path id="Layer" class="s2" d="m356 512v-82.2h82.2z"/>
			</g>
		</g>
		<path id="Layer" class="s3" d="m438.2 126.1l-182.2 65.5-182.2-65.5v-126.1h364.4z"/>
		<g id="Layer">
			<path id="Layer" class="s4" d="m438.2 0v126.1l-41.2 14.8v-140.9z"/>
		</g>
		<g id="Layer">
			<path id="Layer" class="s5" d="m200.9 111.7c0 4.2-3.4 7.7-7.7 7.8-9.1 0.1-15.8 0.1-20.8 0.1-12.7 0-13.7-0.3-14.7-0.6-2.5-0.9-4.4-2.8-5.2-5.3-1.3-4.3 0.7-6.9 4.7-12.1 3.3-4.3 9.4-12.3 19.7-27 2.9-4.2 4.8-7.9 5.6-11l0.2-1.5c-0.3-4.7-4.1-8.4-8.9-8.4-4.2 0-7.8 3-8.6 7.1-0.9 4.2-4.9 6.9-9.1 6.1-4.2-0.9-6.9-4.9-6.1-9.1 2.2-11.4 12.3-19.6 23.8-19.6 13.4 0 24.3 10.9 24.3 24.3q0 0.5 0 1l-0.4 2.5q0 0.4-0.1 0.7c-1.2 5.2-3.9 10.8-8.1 16.8-6.5 9.2-11.3 15.9-14.9 20.7 5.6 0 12.2-0.1 18.4-0.2q0.1 0 0.1 0c4.3 0 7.7 3.4 7.8 7.7z"/>
			<text id="" style="transform: matrix(1,0,0,1,220,-248)" >
			</text>
			<text id="Text layer 39" style="transform: matrix(1,0,0,1,331,116)" >
				<tspan x="0" y="0" class="t6">2</tspan><tspan  y="0" class="t6">
</tspan>
			</text>
			<path id="Layer" class="s5" d="m323.5 111.7c0 4.2-3.4 7.7-7.7 7.8-9.1 0.1-15.8 0.1-20.7 0.1-12.8 0-13.8-0.3-14.8-0.6-2.5-0.9-4.4-2.8-5.2-5.3-1.3-4.3 0.7-6.9 4.7-12.1 3.3-4.3 9.4-12.4 19.7-27 2.9-4.2 4.8-7.9 5.6-11l0.2-1.5c-0.2-4.7-4.1-8.4-8.8-8.4-4.3 0-7.9 3-8.7 7.1-0.8 4.2-4.9 6.9-9.1 6.1-4.2-0.9-6.9-4.9-6.1-9.1 2.3-11.4 12.3-19.6 23.9-19.6 13.3 0 24.2 10.9 24.2 24.3q0 0.5 0 1l-0.3 2.5q-0.1 0.4-0.2 0.7c-1.2 5.2-3.9 10.8-8.1 16.8-6.4 9.2-11.3 15.9-14.9 20.7 5.6 0 12.2-0.1 18.5-0.2q0 0 0.1 0c4.2 0 7.6 3.4 7.7 7.7z"/>
			<path id="Layer" fill-rule="evenodd" class="s5" d="m263.1 64.3v29.9c0 14.6-11.9 26.4-26.4 26.4-14.6 0-26.5-11.8-26.5-26.4v-29.9c0-14.6 11.9-26.5 26.5-26.5 14.5 0 26.4 11.9 26.4 26.5zm-15.4 0c0-6.1-5-11-11-11-6.1 0-11 4.9-11 11v29.9c0 6.1 4.9 11 11 11 6 0 11-4.9 11-11z"/>
		</g>
		<g id="Layer">
			<path id="Layer" class="s3" d="m140 265.2c-7.9 0-14.3-6.3-14.3-14.2 0-7.9 6.4-14.2 14.3-14.2 7.8 0 14.2 6.3 14.2 14.2 0 7.9-6.4 14.2-14.2 14.2z"/>
		</g>
		<g id="Layer">
			<path id="Layer" class="s3" d="m140 327.6c-7.9 0-14.3-6.4-14.3-14.3 0-7.8 6.4-14.2 14.3-14.2 7.8 0 14.2 6.4 14.2 14.2 0 7.9-6.4 14.3-14.2 14.3z"/>
		</g>
		<g id="Layer">
			<path id="Layer" class="s3" d="m140 389.9c-7.9 0-14.3-6.4-14.3-14.2 0-7.9 6.4-14.3 14.3-14.3 7.8 0 14.2 6.4 14.2 14.3 0 7.8-6.4 14.2-14.2 14.2z"/>
		</g>
		<g id="Layer">
			<g id="Layer">
				<path id="Layer" class="s3" d="m140 452.2c-7.9 0-14.3-6.3-14.3-14.2 0-7.9 6.4-14.2 14.3-14.2 7.8 0 14.2 6.3 14.2 14.2 0 7.9-6.4 14.2-14.2 14.2z"/>
			</g>
			<g id="Layer">
				<path id="Layer" class="s2" d="m177.9 250.4c0-4.3 3.5-7.7 7.7-7.7h198.2c4.3 0 7.8 3.4 7.8 7.7 0 4.3-3.5 7.7-7.8 7.7h-198.2c-4.2 0-7.7-3.4-7.7-7.7z"/>
				<path id="Layer" class="s2" d="m391.6 312.7c0 4.3-3.5 7.8-7.8 7.8h-198.2c-4.2 0-7.7-3.5-7.7-7.8 0-4.2 3.5-7.7 7.7-7.7h198.2c4.3 0 7.8 3.5 7.8 7.7z"/>
				<path id="Layer" class="s2" d="m391.6 375.1c0 4.2-3.5 7.7-7.8 7.7h-198.2c-4.2 0-7.7-3.5-7.7-7.7 0-4.3 3.5-7.8 7.7-7.8h198.2c4.3 0 7.8 3.5 7.8 7.8z"/>
				<path id="Layer" class="s2" d="m317.3 437.4c0 4.3-3.5 7.7-7.7 7.7h-124c-4.2 0-7.7-3.4-7.7-7.7 0-4.3 3.5-7.7 7.7-7.7h124c4.2 0 7.7 3.4 7.7 7.7z"/>
			</g>
		</g>
	</g>
</svg>